1.8Hz3min_grf.mot
version=1
nRows=10
nColumns 19
inDegrees=yes
endheader
time	1_ground_force_vx	1_ground_force_vy	1_ground_force_vz	1_ground_force_px	1_ground_force_py	1_ground_force_pz	1_ground_torque_x	1_ground_torque_y	1_ground_torque_z	2_ground_force_vx	2_ground_force_vy	2_ground_force_vz	2_ground_force_px	2_ground_force_py	2_ground_force_pz	2_ground_torque_x	2_ground_torque_y	2_ground_torque_z
            0.005000	           -0.137577	           -0.360361	           -0.047061	           -0.198310	            0.006229	           -0.405349	           -0.054296	            0.064870	           -0.061833	           -0.091850	           -0.551612	           -0.330428	           -0.218410	            0.005699	           -0.698863	           -0.075157	           -0.009321	           -0.113103
            0.005500	           -0.091767	           -0.180087	           -0.046401	           -0.198310	            0.006229	           -0.405349	           -0.054341	           -0.036867	           -0.041522	           -0.231591	           -0.737439	           -0.002529	           -0.218410	            0.005699	           -0.698863	           -0.112849	            0.037404	            0.000183
            0.006000	            0.229427	           -0.540949	            0.042968	           -0.198310	            0.006229	           -0.405349	           -0.001600	            0.092541	            0.010194	           -0.046953	            0.000668	           -0.234621	           -0.218410	            0.005699	           -0.698863	           -0.150376	            0.018564	           -0.056419
            0.006500	            0.092111	           -1.081970	            0.086846	           -0.198310	            0.006229	           -0.405349	           -0.097213	            0.037242	           -0.052045	           -0.044335	           -0.735591	           -0.331105	           -0.218410	            0.005699	           -0.698863	            0.018709	            0.019040	           -0.018791
            0.007000	            0.046984	           -1.263424	            0.361323	           -0.198310	            0.006229	           -0.405349	           -0.090145	           -0.018067	           -0.091845	            0.092932	            0.185323	           -0.234023	           -0.218410	            0.005699	           -0.698863	           -0.131379	           -0.028967	            0.037655
            0.007500	           -0.136013	           -1.444315	            0.498573	           -0.198310	            0.006229	           -0.405349	           -0.020546	           -0.018617	            0.012956	           -0.092350	           -0.368802	            0.045654	           -0.218410	            0.005699	           -0.698863	           -0.131395	           -0.028833	           -0.000045
            0.008000	            0.046250	           -0.361112	            0.135908	           -0.198310	            0.006229	           -0.405349	           -0.024538	           -0.018224	           -0.054444	            0.143126	           -0.735416	           -0.190400	           -0.218410	            0.005699	           -0.698863	           -0.075141	           -0.000271	            0.000032
            0.008500	            0.183569	           -1.081559	           -0.005093	           -0.198310	            0.006229	           -0.405349	           -0.074464	           -0.018256	           -0.029632	           -0.044150	           -0.737097	            0.091248	           -0.218410	            0.005699	           -0.698863	           -0.056389	            0.000065	           -0.075377
            0.009000	            0.046316	           -0.721644	            0.134362	           -0.198310	            0.006229	           -0.405349	            0.050970	           -0.027775	            0.020533	            0.187400	            0.000677	           -0.000080	           -0.218410	            0.005699	           -0.698863	           -0.018829	            0.018636	            0.056626
            0.009500	            0.183602	           -1.261824	           -0.005866	           -0.198310	            0.006229	           -0.405349	           -0.093353	           -0.017857	           -0.123568	            0.048200	           -0.368295	            0.045594	           -0.218410	            0.005699	           -0.698863	           -0.056356	           -0.000203	            0.000024
